<svg xmlns="http://www.w3.org/2000/svg" viewBox="0 0 64 64">
  <defs>
    <linearGradient id="g" x1="0" x2="1" y1="0" y2="1">
      <stop offset="0" stop-color="#f5d061"/>
      <stop offset="1" stop-color="#a67c00"/>
    </linearGradient>
    <linearGradient id="b" x1="0" x2="1" y1="0" y2="1">
      <stop offset="0" stop-color="#60a5fa"/>
      <stop offset="1" stop-color="#1d4ed8"/>
    </linearGradient>
  </defs>
  <rect width="64" height="64" rx="15" fill="#080b18"/>
  <path d="M20 12h24a3 3 0 0 1 3 3v37l-15-9-15 9V15a3 3 0 0 1 3-3z" fill="url(#b)" opacity="0.16"/>
  <path d="M20 12h24a3 3 0 0 1 3 3v37l-15-9-15 9V15a3 3 0 0 1 3-3z" fill="none" stroke="url(#g)" stroke-width="2" stroke-linejoin="round"/>
  <path d="M22 22l4 16 6-12 6 12 4-16" fill="none" stroke="url(#g)" stroke-width="3" stroke-linecap="round" stroke-linejoin="round"/>
</svg>
